<svg width="20" height="20" viewBox="0 0 24 24" fill="none" xmlns="http://www.w3.org/2000/svg">
<path d="M14 9.01001L14.01 8.9989" stroke="currentColor" stroke-width="1.5" stroke-linecap="round" stroke-linejoin="round"/>
<path d="M8 8.01001L8.01 7.9989" stroke="currentColor" stroke-width="1.5" stroke-linecap="round" stroke-linejoin="round"/>
<path d="M8 14.01L8.01 13.9989" stroke="currentColor" stroke-width="1.5" stroke-linecap="round" stroke-linejoin="round"/>
<path d="M6 19L2.23626 3.0041C2.13087 2.55618 2.54815 2.16122 2.98961 2.29106L19 7" stroke="currentColor" stroke-width="1.5"/>
<path d="M22.198 8.42472C22.4324 7.48708 21.8623 6.53695 20.9247 6.30254C19.987 6.06813 19.0369 6.63821 18.8025 7.57585C18.4106 9.14323 16.9015 11.6242 14.5753 13.9504C12.2743 16.2514 9.42714 18.1443 6.60672 18.7952C5.66497 19.0125 5.07771 19.9521 5.29504 20.8938C5.51236 21.8356 6.45198 22.4228 7.39373 22.2055C11.0734 21.3564 14.4762 18.9992 17.0502 16.4253C19.5989 13.8765 21.5898 10.8574 22.198 8.42472Z" stroke="currentColor" stroke-width="1.5" stroke-linecap="round"/>
</svg>
